# Blender v2.77 (sub 0) OBJ File: ''
# www.blender.org
mtllib Fox McCloud (Head).mtl
o ShapeIndexedFaceSet.122
v -0.175750 0.182512 -0.377472
v -0.301750 0.288812 -0.245872
v -0.288250 0.261812 -0.066672
v -0.204150 0.316212 -0.425072
v -0.000850 0.326612 -0.497472
v 0.300450 0.290212 -0.245872
v 0.153550 0.154412 -0.227672
v 0.202650 0.317112 -0.425072
v 0.174750 0.213312 -0.373872
v 0.285850 0.263112 -0.066672
v 0.039750 0.211712 0.247028
v -0.041850 0.211512 0.247028
v -0.000250 0.111212 -0.083172
v 0.039650 0.264412 0.273828
v 0.207050 0.159412 -0.077372
v -0.000050 -0.002088 -0.343372
v -0.154250 0.154912 -0.229172
v -0.041950 0.264212 0.273828
v -0.207750 0.158212 -0.080072
v 0.192250 0.230412 0.060628
v -0.193150 0.229512 0.060628
v 0.264450 0.229712 -0.011972
v -0.247450 0.562812 -0.034772
v 0.244950 0.563912 -0.034772
v 0.281350 0.443612 -0.027572
v 0.202250 0.515612 0.032228
v 0.136350 0.660512 -0.164672
v 0.107250 0.515712 0.073928
v -0.075950 0.487412 0.078228
v 0.073850 0.487812 0.078228
v -0.264950 0.569012 -0.297972
v -0.118550 0.390512 0.053328
v -0.170650 0.333812 0.053828
v -0.344350 0.762312 -0.159272
v -0.109550 0.515212 0.073928
v -0.156350 0.525112 0.054028
v 0.028150 0.606912 0.059028
v 0.145050 0.397212 0.047228
v 0.041950 0.431512 0.081328
v -0.161450 0.407012 0.044828
v -0.043750 0.431312 0.081328
v -0.001150 0.536412 0.094628
v -0.185650 0.474512 0.047228
v -0.283350 0.442312 -0.027572
v -0.290950 0.858112 -0.132872
v -0.082550 0.447812 0.072928
v -0.099950 0.422512 0.063428
v -0.110750 0.464512 0.065728
v -0.128050 0.422812 0.053928
v -0.114650 0.419312 0.058328
v 0.108750 0.465012 0.065728
v 0.098150 0.423012 0.063428
v 0.112850 0.419812 0.058328
v 0.083350 0.435512 0.067528
v -0.143950 0.296112 -0.502472
v 0.142450 0.296812 -0.502472
v -0.340450 0.271512 -0.050172
v -0.144650 0.598212 -0.524472
v -0.288450 0.289912 -0.352372
v 0.339350 0.273012 -0.050172
v -0.288350 0.272812 -0.051672
v -0.335550 0.442112 -0.027572
v 0.262350 0.570212 -0.297972
v 0.287050 0.291212 -0.352372
v 0.141750 0.598812 -0.524472
v 0.108050 0.720512 -0.286772
v 0.287150 0.274112 -0.051672
v -0.085950 0.754512 -0.007572
v -0.111350 0.720012 -0.286772
v -0.087150 0.680612 -0.018672
v 0.084150 0.681012 -0.018672
v 0.082650 0.754912 -0.007572
v 0.333550 0.443712 -0.027572
v -0.090550 0.395612 0.063528
v -0.138750 0.432312 0.054328
v 0.159750 0.407712 0.044828
v 0.140850 0.447812 0.055428
v 0.136950 0.432912 0.054328
v -0.142850 0.447212 0.055428
v -0.146750 0.396512 0.047228
v -0.176250 0.430012 0.046428
v 0.088850 0.396012 0.063528
v 0.116950 0.391012 0.053328
v 0.126250 0.423412 0.053928
v -0.085250 0.435112 0.067528
v 0.174350 0.430812 0.046428
v 0.183650 0.475412 0.047228
v 0.030150 0.309712 0.347228
v -0.024550 0.274212 0.305128
v -0.031350 0.309512 0.347228
v -0.058150 0.303812 0.292628
v 0.036750 0.350212 0.348328
v 0.056950 0.304112 0.292628
v -0.110750 0.483412 0.066528
v -0.141550 0.470112 0.055728
v -0.038150 0.350012 0.348328
v 0.108650 0.483912 0.066528
v 0.080650 0.448212 0.072928
v 0.139450 0.470812 0.055728
v -0.164350 0.490512 0.057628
v 0.154050 0.525812 0.054028
v 0.162250 0.491212 0.057628
v -0.204550 0.514712 0.032228
v -0.217250 0.230312 0.068628
v -0.040650 0.261212 0.297028
v 0.286450 0.546712 -0.136572
v 0.340850 0.763912 -0.159272
v 0.345250 0.611812 -0.185172
v 0.369150 0.673812 -0.184872
v -0.139350 0.659912 -0.164672
v 0.287150 0.859512 -0.132872
v -0.030750 0.606712 0.059028
v -0.372250 0.672112 -0.184872
v 0.070150 0.388212 0.079128
v 0.054250 0.318712 0.265428
v 0.169250 0.334612 0.053828
v 0.104950 0.366312 0.074728
v -0.055450 0.318512 0.265428
v -0.106450 0.365812 0.074728
v -0.071750 0.387912 0.079128
v -0.265450 0.228512 -0.011972
v -0.000950 0.460912 0.093128
v 0.027350 0.359412 0.281428
v -0.028850 0.359212 0.281428
v -0.347950 0.610212 -0.185172
v -0.288950 0.545312 -0.136572
v 0.023550 0.274312 0.305128
v 0.216350 0.231212 0.068628
v 0.039650 0.261412 0.297028
vt 1.6211 4.4336
vt -0.1055 4.0938
vt -0.0039 3.3828
vt 0.0000 0.9961
vt 1.0000 1.0000
vt 1.1211 -0.4492
vt 0.1250 1.6523
vt 0.1328 1.6914
vt 1.1289 1.6797
vt 1.6406 2.3320
vt 1.6523 3.2422
vt 2.5039 3.1289
vt -0.1602 3.8008
vt 1.5664 4.1406
vt 2.4609 2.9062
vt -0.1133 2.7969
vt 1.5273 1.7461
vt 1.0000 1.0000
vt 0.0000 0.9961
vt 0.0117 1.0664
vt 1.5508 2.7031
vt 1.1211 1.6289
vt 0.0000 0.9961
vt 1.1680 0.3359
vt -0.1328 0.3750
vt 0.9961 0.9688
vt 0.0039 1.3516
vt 1.0273 1.3242
vt 1.0117 1.0508
vt 0.0742 0.2891
vt 0.1289 0.6484
vt -0.2227 0.5352
vt -0.1875 0.9688
vt 0.0078 0.0977
vt 0.4961 -0.0742
vt 0.4961 0.4766
vt 1.2227 0.5273
vt 1.1914 0.9609
vt 1.0000 1.0000
vt 0.8672 0.6523
vt 0.9180 0.2773
vt 0.9844 0.0938
vt 0.5000 1.0156
vt 0.6016 1.7578
vt 0.6016 1.7227
vt 0.9648 1.2773
vt 0.4062 1.7266
vt 0.0000 1.0000
vt 0.4062 1.7578
vt 0.0391 1.2812
vt 1.8047 0.3594
vt 2.4336 0.2617
vt 2.3477 -0.1445
vt 1.7812 -0.0078
vt 1.3906 0.3281
vt 2.9102 -0.0625
vt -1.3438 -0.1445
vt -1.9062 -0.0625
vt -1.4297 0.2617
vt 1.0000 0.9961
vt -0.8008 0.3594
vt -0.7773 -0.0078
vt -1.3789 1.8555
vt -1.7930 1.9492
vt 2.7969 1.9492
vt -1.6797 0.4297
vt 2.3828 1.8555
vt 0.8438 1.3594
vt 0.1562 1.3594
vt 0.2852 1.2422
vt 0.7383 1.3438
vt 0.9961 1.5273
vt 1.0977 1.4375
vt 0.0000 1.0000
vt 1.1406 1.3320
vt 1.0938 1.1680
vt 0.2617 1.3438
vt 0.0000 0.9961
vt -0.0898 1.1680
vt 1.0000 0.9961
vt -0.1367 1.3320
vt 0.3281 1.6211
vt 0.5000 2.0508
vt 0.6719 1.6211
vt -0.0938 1.4375
vt 1.0000 0.9961
vt 0.0000 0.9961
vt 0.8398 1.7930
vt 1.1445 2.2773
vt 1.3477 1.5078
vt 2.6836 0.4297
vt 1.1836 2.4492
vt 2.5117 2.1445
vt 1.7539 1.7773
vt 3.0703 3.3711
vt -0.7500 1.7773
vt -1.5078 2.1445
vt -0.1406 2.2773
vt -0.3438 1.5078
vt -2.0664 3.3711
vt -0.1797 2.4492
vt 0.0000 0.9961
vt -0.3867 0.3281
vt 0.1602 1.7930
vt -1.9219 -2.2344
vt -2.2188 -2.0117
vt -2.9609 -1.5781
vt 0.0312 2.9531
vt -3.4727 -1.6562
vt 0.5000 0.6367
vt 0.0000 1.0000
vt 1.0000 1.0000
vt 0.0039 1.5273
vt 0.0000 1.0000
vt -1.0117 2.4727
vt 0.0391 3.4648
vt 1.0391 3.4648
vt 0.7148 1.2422
vt 0.9688 2.9531
vt 1.0000 1.0000
vt 0.0000 0.0000
vt 0.0000 0.0000
vt 0.0000 0.0000
vt 0.0000 0.0000
vt -1.1641 1.8555
vt -1.1367 2.3750
vt -0.9219 1.6836
vt 0.0000 1.0000
vt -0.6758 1.9102
vt -0.2969 1.2188
vt 1.9258 1.6836
vt 2.1406 2.3750
vt 2.1680 1.8555
vt 1.6797 1.9102
vt 1.0000 1.0000
vt 1.3008 1.2188
vt 0.8516 -1.0664
vt 0.5000 -0.2500
vt 1.7812 0.0000
vt 2.1758 1.0664
vt 1.3008 1.7930
vt 1.3906 0.3320
vt -0.7773 0.0000
vt 0.1484 -1.0664
vt -0.3867 0.3320
vt -1.2305 1.5195
vt -1.4062 1.3984
vt -2.9023 3.2773
vt -0.8984 1.5586
vt -1.5078 2.1836
vt -0.7500 1.7539
vt 1.6992 1.6250
vt 1.8086 1.3789
vt 1.0000 1.0000
vt 2.0742 1.2227
vt 2.1875 0.9766
vt 2.0586 0.5508
vt 1.8164 0.1133
vt -0.5156 -1.8828
vt -1.3438 -0.0938
vt -1.0547 0.5508
vt -1.1836 0.9766
vt 0.0000 1.0000
vt -1.9062 0.0312
vt -1.0703 1.2227
vt -0.8047 1.3789
vt -0.6953 1.6250
vt 1.5195 -1.8828
vt -0.8125 0.1133
vt 1.4023 1.8398
vt 1.1250 1.8789
vt 2.5117 2.1836
vt 2.2344 1.5195
vt 1.9023 1.5586
vt 3.9062 3.2773
vt 2.4102 1.3984
vt 1.7539 1.7539
vt 1.8047 -0.1484
vt 1.0000 0.9961
vt 1.2578 1.8789
vt -1.1641 3.3633
vt -0.4297 2.5234
vt -0.5625 1.4570
vt -0.3438 1.4922
vt 1.5664 1.4570
vt 1.4336 2.5234
vt 2.1680 3.3633
vt 1.3477 1.4922
vt -0.1914 1.2227
vt 0.0469 1.0664
vt 0.0000 0.9961
vt 0.0664 1.1680
vt 0.9531 1.0664
vt 0.9336 1.1680
vt 1.1953 1.2227
vt 0.1055 1.2188
vt 1.0000 0.9961
vt -0.8125 1.6523
vt 0.1094 2.2305
vt 0.0000 0.9961
vt 0.8945 1.2188
vt -0.2969 1.7930
vt -1.1719 1.0664
vt 1.0000 0.9961
vt 0.8906 2.2305
vt 1.8164 1.6523
vt -0.1680 0.8945
vt -0.3750 1.0000
vt -0.3438 1.0938
vt -0.3672 0.8633
vt -0.0156 1.0781
vt 0.0000 0.9961
vt -0.1094 1.1562
vt -0.2852 1.1562
vt -0.1992 1.1758
vt 1.1719 0.8945
vt 1.2891 1.1562
vt 1.3477 1.0938
vt 1.3711 0.8633
vt 1.3789 1.0000
vt 1.0000 0.9961
vt 1.0195 1.0781
vt 1.1133 1.1562
vt 1.2031 1.1758
vt 0.3672 1.8906
vt 0.6680 1.2812
vt 0.0000 0.9961
vt 0.1836 0.6523
vt -0.3242 1.4023
vt -0.1562 1.6680
vt 0.9062 1.9219
vt 1.0000 0.9961
vt -0.1992 1.5430
vt 0.9609 2.0391
vt -0.4492 0.8203
vt -0.7812 0.4375
vt -0.7734 0.6484
vt -1.4023 0.3711
vt -1.1484 0.6094
vt 0.9453 1.4727
vt 0.3320 1.2148
vt 2.1602 0.6641
vt 2.6680 0.6445
vt 2.4219 0.4336
vt 1.7969 0.4805
vt 1.7812 0.6875
vt 1.4492 0.8516
vt -1.6562 0.5742
vt 0.9883 1.0156
vt -0.8984 1.4844
vt -0.8438 1.1406
vt -1.0078 1.1016
vt -1.2305 1.4180
vt -0.5625 1.4180
vt -0.6758 1.0977
vt 2.1719 0.5430
vt 2.1875 0.8047
vt 2.5820 1.0117
vt -1.1250 0.9805
vt 2.4102 1.2852
vt 2.1289 0.9805
vt 2.2344 1.4180
vt 2.0117 1.1016
vt -1.1836 0.8047
vt -1.5781 1.0117
vt -1.4062 1.2852
vt 1.5664 1.4180
vt 1.6797 1.0977
vt -1.1680 0.5430
vt 1.9023 1.4844
vt 1.8477 1.1406
vt -0.4570 0.7969
vt -0.4922 0.9492
vt 1.4961 0.9492
vt 1.4609 0.7969
vt -0.7148 1.9375
vt 0.2812 1.9375
vt 0.0000 0.9961
vt -1.6797 0.4844
vn -0.4194 0.4546 -0.7858
vn -0.3997 -0.0678 -0.9141
vn -0.9118 0.0227 -0.4099
vn 0.9116 0.0268 -0.4103
vn 0.3999 -0.0657 -0.9142
vn 0.4172 0.4564 -0.7859
vn -0.3890 -0.6629 0.6397
vn -0.6304 -0.6128 0.4765
vn -0.6858 0.3155 0.6558
vn -0.8926 0.4403 0.0974
vn -0.8728 0.4384 -0.2146
vn -0.1916 0.8953 -0.4022
vn 0.1876 0.8961 -0.4022
vn 0.8904 0.4447 0.0974
vn 0.6839 0.3192 0.6561
vn 0.6332 -0.6098 0.4767
vn 0.3920 -0.6616 0.6392
vn 0.8707 0.4424 -0.2150
vn -0.4333 0.1806 0.8830
vn -0.5340 0.5835 0.6118
vn 0.5320 0.5859 0.6114
vn -0.5280 0.4303 0.7322
vn 0.5261 0.4325 0.7322
vn 0.4327 0.1828 0.8828
vn -0.6109 -0.5773 -0.5417
vn -0.6051 -0.7960 0.0141
vn -0.7273 -0.6648 -0.1703
vn -0.8998 -0.3938 0.1880
vn -0.5497 -0.3814 -0.7432
vn 0.0219 -0.4323 -0.9014
vn 0.0192 -0.9532 -0.3017
vn 0.7206 -0.6540 -0.2303
vn 0.9125 -0.3130 0.2634
vn 0.5470 -0.8278 0.1249
vn 0.6008 -0.7975 -0.0551
vn 0.5965 -0.5703 -0.5647
vn 0.5080 -0.4869 -0.7106
vn 0.0010 -0.9733 0.2297
vn 0.4092 0.5101 0.7566
vn 0.4048 -0.6664 0.6261
vn 0.6696 0.2305 0.7060
vn -0.4051 -0.6675 0.6248
vn -0.5738 -0.8157 0.0730
vn -0.4133 0.5086 0.7553
vn -0.6700 0.2234 0.7079
vn 0.2921 -0.1146 0.9495
vn 0.2974 -0.0357 0.9541
vn 0.3548 0.3445 0.8691
vn 0.3239 0.1185 0.9386
vn 0.2327 -0.0945 0.9679
vn 0.5655 0.2895 0.7723
vn -0.3541 0.3427 0.8702
vn -0.5658 0.2865 0.7732
vn -0.2977 -0.0359 0.9540
vn 0.5565 0.3145 0.7691
vn -0.2903 -0.1155 0.9499
vn -0.3245 0.1159 0.9388
vn -0.7050 -0.5426 0.4567
vn -0.7357 -0.6774 0.0012
vn 0.7382 -0.6746 0.0007
vn -0.4537 -0.0583 0.8893
vn 0.7072 -0.5398 0.4566
vn 0.3462 -0.6679 0.6589
vn -0.3419 -0.6693 0.6597
vn -0.2302 -0.5630 0.7938
vn 0.7133 0.1503 0.6846
vn 0.8081 -0.5873 0.0447
vn -0.8868 0.0160 0.4619
vn 0.9959 -0.0739 0.0522
vn 0.9127 0.3219 0.2518
vn -0.7138 0.1469 0.6848
vn -0.4061 0.8567 0.3179
vn -0.9139 0.3183 0.2520
vn 0.4026 0.8585 0.3177
vn -0.9955 -0.0790 0.0525
vn -0.1725 0.5521 0.8157
vn 0.0007 0.1946 0.9809
vn 0.1693 0.5528 0.8159
vn -0.8052 -0.5913 0.0451
vn 0.4918 0.8404 0.2277
vn 0.7452 0.6212 0.2426
vn 0.6341 0.5525 0.5410
vn 0.4538 -0.0580 0.8892
vn 0.8868 0.0209 0.4617
vn 0.6892 0.4466 0.5706
vn 0.4927 0.6664 0.5596
vn -0.4955 0.6644 0.5596
vn -0.6908 0.4430 0.5714
vn -0.7491 0.6164 0.2427
vn -0.6361 0.5496 0.5415
vn -0.5569 0.3124 0.7696
vn -0.2322 -0.0958 0.9679
vn -0.4967 0.8376 0.2274
vn 0.0000 0.3936 0.9193
vn 0.2332 -0.5620 0.7936
vn -0.7108 0.5580 0.4283
vn 0.7084 0.5611 0.4282
vn -0.3090 -0.0277 0.9507
vn -0.3590 -0.2251 0.9058
vn -0.3368 0.1687 0.9263
vn 0.3053 -0.0275 0.9519
vn 0.3362 0.1706 0.9262
vn 0.3574 -0.2247 0.9065
vn -0.3987 0.2180 0.8908
vn 0.3977 0.2196 0.8908
vn -0.4068 -0.2232 0.8858
vn 0.4091 -0.2208 0.8854
vn -0.2853 -0.0788 0.9552
vn -0.2512 -0.0725 0.9652
vn -0.1979 -0.1603 0.9670
vn -0.2437 -0.1442 0.9591
vn -0.3000 -0.1171 0.9467
vn -0.2986 -0.1528 0.9421
vn -0.2783 -0.0928 0.9560
vn -0.2252 -0.1454 0.9634
vn -0.3204 -0.1185 0.9398
vn 0.2848 -0.0784 0.9554
vn 0.2280 -0.1444 0.9629
vn 0.1980 -0.1577 0.9674
vn 0.2431 -0.1431 0.9594
vn 0.2524 -0.0679 0.9653
vn 0.2977 -0.1557 0.9419
vn 0.3024 -0.1166 0.9460
vn 0.2826 -0.0937 0.9546
vn 0.3228 -0.1145 0.9395
vn 0.4286 -0.4113 0.8044
vn -0.4267 -0.4147 0.8037
vn -0.5311 0.5367 0.6557
vn 0.5271 0.5410 0.6554
usemtl Material
s 1
f 58/1/1 55/2/2 59/3/3
f 64/4/4 56/5/5 65/6/6
f 59/3/3 61/7/7 57/8/8
f 59/3/3 57/8/8 62/9/9
f 59/3/3 126/10/10 31/11/11
f 59/3/3 31/11/11 58/1/1
f 69/12/12 58/1/1 31/11/11
f 62/9/9 126/10/10 59/3/3
f 58/1/1 56/13/5 55/2/2
f 58/1/1 65/14/6 56/13/5
f 65/14/6 69/12/12 66/15/13
f 65/14/6 58/1/1 69/12/12
f 64/16/4 106/17/14 73/18/15
f 60/19/16 67/20/17 64/16/4
f 73/18/15 60/19/16 64/16/4
f 65/14/6 63/21/18 64/16/4
f 62/9/9 57/8/8 61/7/7
f 61/7/7 44/22/19 62/9/9
f 63/21/18 106/17/14 64/16/4
f 63/21/18 65/14/6 66/15/13
f 67/20/17 60/19/16 73/18/15
f 68/23/20 66/24/13 69/25/12
f 68/23/20 72/26/21 66/24/13
f 69/25/12 70/27/22 68/23/20
f 66/24/13 72/26/21 71/28/23
f 70/27/22 72/26/21 68/23/20
f 70/27/22 71/28/23 72/26/21
f 106/17/14 25/29/24 73/18/15
f 62/9/9 44/22/19 126/10/10
f 73/18/15 25/29/24 67/20/17
usemtl Material_5C3370CA_c.png
f 1/30/25 17/31/26 2/32/27
f 17/31/26 3/33/28 2/32/27
f 1/30/25 4/34/29 5/35/30
f 2/32/27 4/34/29 1/30/25
f 17/31/26 1/30/25 16/36/31
f 5/35/30 16/36/31 1/30/25
f 6/37/32 10/38/33 15/39/34
f 6/37/32 15/39/34 7/40/35
f 6/37/32 7/40/35 9/41/36
f 9/41/36 8/42/37 6/37/32
f 7/40/35 15/39/34 13/43/38
f 7/40/35 13/43/38 16/36/31
f 5/35/30 9/41/36 16/36/31
f 16/36/31 9/41/36 7/40/35
f 14/44/39 11/45/40 15/39/34
f 5/35/30 8/42/37 9/41/36
f 15/39/34 10/38/33 20/46/41
f 13/43/38 15/39/34 11/45/40
f 12/47/42 19/48/43 13/43/38
f 20/46/41 14/44/39 15/39/34
f 13/43/38 19/48/43 17/31/26
f 11/45/40 12/47/42 13/43/38
f 17/31/26 19/48/43 3/33/28
f 16/36/31 13/43/38 17/31/26
f 19/48/43 12/47/42 18/49/44
f 21/50/45 3/33/28 19/48/43
f 19/48/43 18/49/44 21/50/45
f 18/49/44 20/46/41 21/50/45
f 18/49/44 14/44/39 20/46/41
f 10/38/33 21/50/45 20/46/41
f 10/38/33 3/33/28 21/50/45
f 12/47/42 14/44/39 18/49/44
f 12/47/42 11/45/40 14/44/39
f 97/51/46 102/52/47 101/53/48
f 101/53/48 28/54/49 97/51/46
f 97/51/46 28/54/49 30/55/50
f 102/52/47 26/56/51 101/53/48
f 36/57/52 103/58/53 100/59/54
f 30/55/50 39/60/55 97/51/46
f 36/57/52 100/59/54 94/61/56
f 94/61/56 35/62/57 36/57/52
f 104/63/58 121/64/59 22/65/60
f 103/58/53 43/66/61 100/59/54
f 128/67/62 129/68/63 105/69/64
f 22/65/60 128/67/62 104/63/58
f 89/70/65 105/69/64 129/68/63
f 105/69/64 104/63/58 128/67/62
f 27/71/66 106/72/14 108/73/67
f 105/69/64 89/70/65 91/74/68
f 27/71/66 109/75/69 107/76/70
f 108/73/67 109/75/69 27/71/66
f 110/77/71 45/78/72 34/79/73
f 107/76/70 111/80/74 27/71/66
f 34/79/73 113/81/75 110/77/71
f 112/82/76 42/83/77 37/84/78
f 110/77/71 113/81/75 125/85/79
f 112/82/76 71/86/23 70/87/22
f 112/82/76 37/84/78 71/86/23
f 123/88/80 115/89/81 114/90/82
f 102/52/47 87/91/83 26/56/51
f 115/89/81 93/92/84 116/93/85
f 117/94/86 114/90/82 115/89/81
f 128/95/62 116/93/85 93/92/84
f 115/89/81 116/93/85 117/94/86
f 119/96/87 33/97/88 118/98/89
f 118/98/89 120/99/90 119/96/87
f 104/100/58 91/101/68 33/97/88
f 33/97/88 91/101/68 118/98/89
f 94/61/56 41/102/91 29/103/92
f 120/99/90 118/98/89 124/104/93
f 33/105/88 61/106/7 121/107/59
f 29/103/92 35/62/57 94/61/56
f 104/100/58 105/108/64 91/101/68
f 121/107/59 104/109/58 33/105/88
f 123/88/80 122/110/94 124/104/93
f 41/111/91 120/99/90 124/104/93
f 39/112/55 122/110/94 123/88/80
f 124/104/93 122/110/94 41/111/91
f 125/85/79 126/113/10 110/77/71
f 123/88/80 114/90/82 39/112/55
f 116/114/85 128/115/62 22/116/60
f 22/116/60 67/117/17 116/114/85
f 129/68/63 127/118/95 89/70/65
f 93/92/84 129/119/63 128/95/62
f 93/120/84 127/118/95 129/68/63
usemtl Material_66904AE9_c.png
f 121/121/59 61/122/7 67/123/17
f 67/123/17 22/124/60 121/121/59
f 126/125/10 44/126/19 23/127/96
f 70/128/22 23/127/96 103/129/53
f 23/127/96 70/128/22 110/130/71
f 110/130/71 126/125/10 23/127/96
f 24/131/97 25/132/24 106/133/14
f 103/129/53 23/127/96 44/126/19
f 26/134/51 24/131/97 71/135/23
f 24/131/97 106/133/14 27/136/66
f 25/132/24 24/131/97 26/134/51
f 27/136/66 71/135/23 24/131/97
f 37/137/78 42/138/77 28/139/49
f 111/140/74 71/86/23 27/141/66
f 42/138/77 39/112/55 30/142/50
f 35/143/57 42/138/77 112/144/76
f 42/138/77 35/143/57 29/145/92
f 29/145/92 41/111/91 42/138/77
f 80/146/98 40/147/99 61/148/7
f 30/142/50 28/139/49 42/138/77
f 32/149/100 33/150/88 119/151/87
f 61/148/7 33/150/88 80/146/98
f 31/152/11 126/153/10 69/154/12
f 32/149/100 80/146/98 33/150/88
f 69/154/12 126/153/10 125/155/79
f 69/154/12 113/156/75 34/157/73
f 34/157/73 45/158/72 69/154/12
f 125/155/79 113/156/75 69/154/12
f 112/144/76 70/159/22 35/143/57
f 36/160/52 35/143/57 70/159/22
f 107/161/70 109/162/69 66/163/13
f 70/159/22 103/164/53 36/160/52
f 66/163/13 109/162/69 108/165/67
f 66/163/13 106/166/14 63/167/18
f 28/139/49 71/168/23 37/137/78
f 66/163/13 111/169/74 107/161/70
f 101/170/48 26/134/51 71/135/23
f 71/135/23 28/171/49 101/170/48
f 116/172/85 38/173/101 83/174/102
f 67/175/17 76/176/103 38/173/101
f 117/177/86 116/172/85 83/174/102
f 38/173/101 116/172/85 67/175/17
f 42/178/77 122/179/94 39/180/55
f 44/126/19 61/181/7 40/182/99
f 74/183/104 32/149/100 119/151/87
f 41/102/91 122/179/94 42/178/77
f 120/184/90 41/102/91 74/183/104
f 119/151/87 120/184/90 74/183/104
f 117/177/86 83/174/102 82/185/105
f 76/186/103 67/187/17 25/132/24
f 82/185/105 114/188/82 117/177/86
f 82/185/105 39/60/55 114/188/82
f 44/189/19 43/190/61 103/191/53
f 44/189/19 81/192/106 43/190/61
f 87/193/83 86/194/107 25/195/24
f 40/196/99 81/192/106 44/189/19
f 25/195/24 26/197/51 87/193/83
f 45/198/72 70/199/22 69/200/12
f 25/195/24 86/194/107 76/201/103
f 110/202/71 70/87/22 45/203/72
f 66/204/13 71/205/23 111/206/74
f 108/165/67 106/166/14 66/163/13
usemtl Material_379B9AE2_c.png
f 48/207/108 79/208/109 75/209/110
f 79/208/109 48/207/108 95/210/111
f 85/211/112 46/212/113 48/207/108
f 48/207/108 47/213/114 85/211/112
f 75/209/110 49/214/115 48/207/108
f 50/215/116 47/213/114 48/207/108
f 51/216/117 84/217/118 78/218/119
f 48/207/108 49/214/115 50/215/116
f 99/219/120 51/216/117 77/220/121
f 78/218/119 77/220/121 51/216/117
f 51/216/117 98/221/122 54/222/123
f 51/216/117 52/223/124 53/224/125
f 54/222/123 52/223/124 51/216/117
f 53/224/125 84/217/118 51/216/117
usemtl Material_6DAD4054_c.png
f 127/225/95 88/226/126 90/227/127
f 96/228/128 90/227/127 88/226/126
f 91/229/68 89/230/65 90/227/127
f 90/227/127 89/230/65 127/225/95
f 88/226/126 127/225/95 93/231/84
f 90/227/127 96/228/128 91/229/68
f 88/226/126 92/232/129 96/228/128
f 93/231/84 92/232/129 88/226/126
f 91/229/68 96/228/128 118/233/89
f 115/234/81 92/232/129 93/231/84
f 46/235/113 41/102/91 94/236/56
f 94/236/56 48/237/108 46/235/113
f 94/236/56 100/238/54 95/239/111
f 95/239/111 48/237/108 94/236/56
f 123/240/80 92/232/129 115/234/81
f 92/232/129 123/240/80 124/241/93
f 118/233/89 96/228/128 124/241/93
f 124/241/93 96/228/128 92/232/129
f 99/242/120 87/243/83 102/244/47
f 97/245/46 51/246/117 99/242/120
f 98/247/122 51/246/117 97/245/46
f 99/242/120 102/244/47 97/245/46
f 100/238/54 43/248/61 95/239/111
f 97/245/46 39/249/55 98/247/122
usemtl Material_7FE6D19F_c.png
f 32/250/100 50/251/116 49/252/115
f 49/252/115 80/253/98 32/250/100
f 74/254/104 47/255/114 50/251/116
f 50/251/116 32/250/100 74/254/104
f 99/256/120 77/257/121 86/258/107
f 80/253/98 49/252/115 75/259/110
f 76/260/103 86/258/107 77/257/121
f 77/257/121 78/261/119 76/260/103
f 38/262/101 76/260/103 78/261/119
f 78/261/119 84/263/118 38/262/101
f 79/264/109 81/265/106 40/266/99
f 47/255/114 74/254/104 41/111/91
f 40/266/99 75/259/110 79/264/109
f 75/259/110 40/266/99 80/253/98
f 39/112/55 82/267/105 52/268/124
f 81/265/106 79/264/109 95/269/111
f 82/267/105 83/270/102 53/271/125
f 53/271/125 52/268/124 82/267/105
f 84/263/118 53/271/125 83/270/102
f 83/270/102 38/262/101 84/263/118
f 41/111/91 46/272/113 85/273/112
f 85/273/112 47/255/114 41/111/91
f 39/112/55 52/268/124 54/274/123
f 54/274/123 98/275/122 39/112/55
f 86/276/107 87/277/83 99/278/120
f 95/269/111 43/279/61 81/265/106
