# Blender v2.77 (sub 0) OBJ File: ''
# www.blender.org
mtllib Fox McCloud - Expert Mode (Head).mtl
o ShapeIndexedFaceSet.116
v -0.287748 0.544904 -0.137164
v -0.282348 0.441816 -0.028208
v -0.246348 0.562238 -0.035367
v -0.085848 0.679941 -0.019292
v -0.203448 0.514046 0.031622
v -0.138048 0.659272 -0.165252
v 0.246152 0.562838 -0.035374
v 0.282452 0.442416 -0.028215
v 0.287652 0.545604 -0.137173
v 0.203352 0.514546 0.031616
v 0.085452 0.680141 -0.019294
v 0.137652 0.659672 -0.165257
v 0.029352 0.605977 0.058410
v -0.000048 0.535604 0.094065
v 0.108352 0.514751 0.073316
v 0.288652 0.858373 -0.133361
v 0.042952 0.430534 0.080637
v 0.074952 0.486800 0.077555
v -0.108448 0.514451 0.073320
v -0.029548 0.605877 0.058411
v -0.074948 0.486700 0.077556
v -0.042748 0.430434 0.080638
v -0.145748 0.395818 0.046555
v -0.160448 0.406390 0.044127
v -0.287448 0.272311 -0.052356
v -0.117648 0.389791 0.052628
v -0.169748 0.333192 0.053014
v -0.105548 0.365049 0.074030
v -0.110048 0.719398 -0.287289
v -0.370948 0.671728 -0.185404
v -0.342848 0.761947 -0.159695
v -0.263748 0.568550 -0.298563
v -0.289448 0.857673 -0.133353
v -0.346748 0.609821 -0.185654
v -0.155248 0.524410 0.053398
v 0.342252 0.762746 -0.159705
v 0.370452 0.672628 -0.185415
v 0.109452 0.719598 -0.287292
v 0.346452 0.610621 -0.185664
v 0.263552 0.569250 -0.298571
v 0.155252 0.524810 0.053393
v 0.170152 0.333592 0.053009
v 0.145952 0.396218 0.046550
v 0.117852 0.390091 0.052625
v 0.287952 0.273011 -0.052365
v 0.160652 0.406689 0.044123
v 0.105852 0.365349 0.074026
v 0.000052 0.459979 0.092481
v -0.089548 0.394916 0.062867
v -0.070748 0.387104 0.078463
v 0.089752 0.395116 0.062865
v 0.071052 0.387304 0.078460
v -0.184648 0.473923 0.046509
v -0.175248 0.429411 0.045748
v 0.184752 0.474323 0.046504
v 0.175352 0.429811 0.045743
v -0.156548 0.496015 0.103445
v -0.173848 0.388813 0.095743
v -0.157748 0.372717 0.096138
v -0.172548 0.479586 0.101144
v -0.092148 0.373381 0.101431
v -0.060048 0.389927 0.105131
v -0.044048 0.406356 0.107432
v -0.028048 0.439116 0.112135
v -0.021348 0.488072 0.116443
v -0.032148 0.498759 0.115313
v 0.032152 0.498759 0.115313
v 0.028152 0.439216 0.112134
v 0.044252 0.406572 0.108729
v 0.021452 0.488072 0.116443
v 0.060352 0.390027 0.105129
v 0.092452 0.373581 0.101428
v 0.158052 0.373017 0.096135
v 0.174052 0.389213 0.095739
v 0.176652 0.479870 0.099841
v 0.160552 0.496315 0.103442
v -0.113648 0.418555 0.057680
v -0.127048 0.422201 0.053236
v -0.098948 0.421816 0.062741
v 0.140552 0.469727 0.055060
v 0.141952 0.446821 0.054738
v -0.137748 0.431606 0.053622
v 0.137952 0.431906 0.053618
v 0.127252 0.422401 0.053233
v -0.141748 0.446521 0.054741
v 0.099152 0.422016 0.062739
v -0.140448 0.469427 0.055064
v 0.113852 0.418855 0.057677
v -0.081548 0.447033 0.072236
v -0.084248 0.434366 0.066789
v 0.084352 0.434566 0.066787
v 0.081652 0.447233 0.072234
v -0.109648 0.463748 0.065133
v 0.109752 0.464048 0.065130
v 0.109752 0.482958 0.065801
v 0.163252 0.490152 0.057013
v -0.163248 0.489852 0.057017
v -0.109748 0.482758 0.065803
v -0.216448 0.229664 0.067869
v -0.264648 0.227987 -0.012816
v 0.265252 0.228587 -0.012824
v 0.217052 0.230164 0.067863
v 0.040452 0.260432 0.296213
v -0.039848 0.260332 0.296214
v -0.023748 0.273332 0.304358
v -0.057248 0.302882 0.291799
v 0.028252 0.358452 0.280725
v 0.055052 0.317755 0.264717
v 0.057752 0.303082 0.291796
v -0.054648 0.317655 0.264718
v -0.027948 0.358352 0.280726
v 0.024352 0.273332 0.304358
v -0.174948 0.182056 -0.378287
v -0.153548 0.154451 -0.229942
v -0.300848 0.288559 -0.246567
v -0.287448 0.261328 -0.067424
v -0.203248 0.315790 -0.425810
v 0.000152 0.326014 -0.498239
v 0.000552 -0.002645 -0.344247
v 0.301352 0.289159 -0.246575
v 0.286652 0.262028 -0.067433
v 0.207752 0.158490 -0.078179
v 0.154252 0.153568 -0.228531
v 0.175552 0.212502 -0.374655
v 0.203552 0.316290 -0.425816
v 0.000452 0.110516 -0.083999
v 0.040452 0.263352 0.273076
v 0.040452 0.210823 0.246211
v 0.193052 0.229367 0.059872
v -0.041148 0.210723 0.246212
v -0.207048 0.157757 -0.080871
v -0.041148 0.263252 0.273077
v -0.192348 0.228867 0.059878
v -0.143348 0.597709 -0.525033
v -0.143048 0.295752 -0.503173
v -0.287548 0.289569 -0.353087
v 0.287952 0.290269 -0.353096
v 0.143352 0.296052 -0.503177
v 0.143052 0.598109 -0.525037
v -0.339648 0.271028 -0.050941
v -0.334448 0.441716 -0.028207
v 0.334652 0.442516 -0.028216
v 0.340152 0.271828 -0.050950
v -0.084548 0.753783 -0.008085
v 0.084052 0.753983 -0.008088
v 0.031052 0.308644 0.346433
v -0.030548 0.308644 0.346433
v -0.037248 0.349162 0.347642
v 0.037652 0.349262 0.347641
vt 0.0586 0.1484
vt -0.0430 0.8047
vt 0.0586 0.9062
vt -0.0352 0.2500
vt 0.4609 0.9062
vt 0.6602 0.8047
vt 0.7617 0.7070
vt 0.8594 0.5078
vt 0.9062 0.2070
vt 0.8359 0.1367
vt -0.0195 0.1250
vt -0.0430 0.4961
vt 0.0508 0.6953
vt -0.0898 0.1953
vt 0.1484 0.7969
vt 0.3516 0.8945
vt 0.7539 0.8945
vt 0.8555 0.7969
vt 0.8789 0.2383
vt 0.7773 0.1406
vt -0.1680 0.8945
vt -0.3750 1.0000
vt -0.3438 1.0938
vt -0.3672 0.8633
vt -0.0156 1.0781
vt 0.0000 0.9961
vt -0.1094 1.1562
vt -0.2852 1.1562
vt -0.1992 1.1758
vt 1.1719 0.8945
vt 1.2891 1.1562
vt 1.3477 1.0938
vt 1.3711 0.8633
vt 1.3789 1.0000
vt 1.0000 0.9961
vt 1.0195 1.0781
vt 1.1133 1.1562
vt 1.2031 1.1758
vt -1.1641 1.8555
vt -1.1367 2.3750
vt -0.9219 1.6836
vt 0.0000 1.0000
vt -0.6758 1.9102
vt -0.2969 1.2188
vt 1.9258 1.6836
vt 2.1406 2.3750
vt 2.1680 1.8555
vt 1.6797 1.9102
vt 1.0000 1.0000
vt 1.3008 1.2188
vt 0.8516 -1.0664
vt 0.5000 -0.2500
vt 1.7812 0.0000
vt 2.1758 1.0664
vt 1.0000 0.9961
vt 1.3008 1.7930
vt 1.0000 1.0000
vt 1.3906 0.3320
vt -0.7773 0.0000
vt 0.1484 -1.0664
vt -0.3867 0.3320
vt 0.0000 1.0000
vt -1.2305 1.5195
vt -1.4062 1.3984
vt -2.9023 3.2773
vt -0.8984 1.5586
vt -1.5078 2.1836
vt -0.7500 1.7539
vt 1.0000 1.0000
vt 2.1875 0.9766
vt 2.0586 0.5508
vt 1.6992 1.6250
vt 1.8086 1.3789
vt 1.8164 0.1133
vt 2.0742 1.2227
vt -0.5156 -1.8828
vt -1.3438 -0.0938
vt -1.0547 0.5508
vt -1.1836 0.9766
vt 0.0000 1.0000
vt -1.9062 0.0312
vt -1.0703 1.2227
vt -0.8047 1.3789
vt -0.6953 1.6250
vt 1.5195 -1.8828
vt -0.8125 0.1133
vt 1.4023 1.8398
vt 1.1250 1.8789
vt 2.5117 2.1836
vt 2.2344 1.5195
vt 1.9023 1.5586
vt 3.9062 3.2773
vt 2.4102 1.3984
vt 1.7539 1.7539
vt 1.8047 -0.1484
vt 1.0000 0.9961
vt 1.2578 1.8789
vt -1.1641 3.3633
vt -0.4297 2.5234
vt -0.5625 1.4570
vt 0.0000 0.9961
vt -0.3438 1.4922
vt 1.5664 1.4570
vt 1.4336 2.5234
vt 2.1680 3.3633
vt 1.3477 1.4922
vt 1.0000 0.9961
vt -0.1914 1.2227
vt 0.0469 1.0664
vt 0.0000 0.9961
vt 0.0664 1.1680
vt 0.9531 1.0664
vt 0.9336 1.1680
vt 1.1953 1.2227
vt 0.1055 1.2188
vt 0.8945 1.2188
vt 1.0000 0.9961
vt -0.8125 1.6523
vt 0.1094 2.2305
vt 0.0000 0.9961
vt -0.2969 1.7930
vt 0.0000 0.9961
vt -1.1719 1.0664
vt 1.0000 0.9961
vt 0.8906 2.2305
vt 1.8164 1.6523
vt 1.6211 4.4336
vt -0.1055 4.0938
vt -0.0039 3.3828
vt 0.0000 0.9961
vt 1.0000 1.0000
vt 1.1211 -0.4492
vt 1.6523 3.2422
vt 0.1328 1.6914
vt 1.1289 1.6797
vt 1.6406 2.3320
vt 2.5039 3.1289
vt -0.1602 3.8008
vt 1.5664 4.1406
vt 2.4609 2.9062
vt -0.1133 2.7969
vt 1.5273 1.7461
vt 1.0000 1.0000
vt 0.0000 0.9961
vt 0.0117 1.0664
vt 1.5508 2.7031
vt 0.1250 1.6523
vt 1.1211 1.6289
vt 1.0117 1.0508
vt 0.0000 0.9961
vt 1.1680 0.3359
vt -0.1328 0.3750
vt 0.9961 0.9688
vt 0.0039 1.3516
vt 1.0273 1.3242
vt 0.3672 1.8906
vt 0.6680 1.2812
vt 0.0000 0.9961
vt 0.1836 0.6523
vt -0.3242 1.4023
vt -0.1562 1.6680
vt 0.9062 1.9219
vt 1.0000 0.9961
vt -0.1992 1.5430
vt 0.9609 2.0391
vt -0.4492 0.8203
vt -0.7812 0.4375
vt -0.7734 0.6484
vt -1.4023 0.3711
vt -1.1484 0.6094
vt 0.9453 1.4727
vt 0.3320 1.2148
vt 2.1602 0.6641
vt 2.6680 0.6445
vt 2.4219 0.4336
vt 1.7969 0.4805
vt 1.7812 0.6875
vt 1.4492 0.8516
vt -1.6562 0.5742
vt 0.9883 1.0156
vt 1.8047 0.3594
vt 2.4336 0.2617
vt 2.3477 -0.1445
vt 1.7812 -0.0078
vt 1.3906 0.3281
vt 2.9102 -0.0625
vt -1.3438 -0.1445
vt -1.9062 -0.0625
vt -1.4297 0.2617
vt -0.8008 0.3594
vt -0.7773 -0.0078
vt -1.3789 1.8555
vt -1.7930 1.9492
vt 2.7969 1.9492
vt -1.6797 0.4297
vt 2.3828 1.8555
vt 0.8438 1.3594
vt 0.1562 1.3594
vt 0.2852 1.2422
vt 0.7383 1.3438
vt 0.9961 1.5273
vt 1.0977 1.4375
vt 0.0000 1.0000
vt 1.1406 1.3320
vt 1.0938 1.1680
vt 0.2617 1.3438
vt 0.0000 0.9961
vt -0.0898 1.1680
vt 1.0000 0.9961
vt -0.1367 1.3320
vt -0.0938 1.4375
vt 0.3281 1.6211
vt 0.5000 2.0508
vt 0.6719 1.6211
vt 0.0039 1.5273
vt 0.8398 1.7930
vt 1.1445 2.2773
vt 1.3477 1.5078
vt 2.6836 0.4297
vt 1.1836 2.4492
vt 2.5117 2.1445
vt 1.7539 1.7773
vt 3.0703 3.3711
vt -0.7500 1.7773
vt -1.5078 2.1445
vt -0.1406 2.2773
vt -0.3438 1.5078
vt -2.0664 3.3711
vt -0.1797 2.4492
vt -0.3867 0.3281
vt 0.1602 1.7930
vt -1.9219 -2.2344
vt -2.2188 -2.0117
vt -2.9609 -1.5781
vt 0.0312 2.9531
vt -3.4727 -1.6562
vt 0.5000 0.6367
vt 0.0391 3.4648
vt 1.0391 3.4648
vt 0.0000 1.0000
vt 0.9688 2.9531
vt -1.0117 2.4727
vt 1.0000 1.0000
vt 0.7148 1.2422
vt 0.0742 0.2891
vt 0.1289 0.6484
vt -0.2227 0.5352
vt -0.1875 0.9688
vt 0.0078 0.0977
vt 0.4961 -0.0742
vt 0.4961 0.4766
vt 1.2227 0.5273
vt 1.1914 0.9609
vt 1.0000 1.0000
vt 0.8672 0.6523
vt 0.9180 0.2773
vt 0.9844 0.0938
vt 0.5000 1.0156
vt 0.6016 1.7578
vt 0.6016 1.7227
vt 0.9648 1.2773
vt 0.4062 1.7266
vt 0.0000 1.0000
vt 0.4062 1.7578
vt 0.0391 1.2812
vt -0.8984 1.4844
vt -0.8438 1.1406
vt -1.0078 1.1016
vt -1.2305 1.4180
vt -0.5625 1.4180
vt -0.6758 1.0977
vt 2.1719 0.5430
vt 2.1875 0.8047
vt 2.5820 1.0117
vt -1.1250 0.9805
vt 2.4102 1.2852
vt 2.1289 0.9805
vt 2.2344 1.4180
vt 2.0117 1.1016
vt -1.1836 0.8047
vt -1.5781 1.0117
vt -1.4062 1.2852
vt 1.5664 1.4180
vt 1.6797 1.0977
vt -1.1680 0.5430
vt 1.9023 1.4844
vt 1.8477 1.1406
vt -0.4570 0.7969
vt -0.4922 0.9492
vt 1.4961 0.9492
vt 1.4609 0.7969
vt -0.7148 1.9375
vt 0.2812 1.9375
vt 0.0000 0.9961
vt -1.6797 0.4844
vn -0.0891 -0.0608 0.9942
vn -0.0831 -0.0609 0.9947
vn -0.0806 -0.0603 0.9949
vn -0.0858 -0.0580 0.9946
vn -0.0817 -0.0602 0.9948
vn -0.0823 -0.0607 0.9948
vn -0.0932 -0.0747 0.9928
vn -0.1025 -0.0828 0.9913
vn -0.0977 -0.0475 0.9941
vn -0.0949 0.0079 0.9955
vn 0.1164 -0.0619 0.9913
vn 0.0927 -0.0594 0.9939
vn 0.1619 -0.0543 0.9853
vn 0.1662 -0.0646 0.9840
vn 0.0933 -0.0719 0.9930
vn 0.0792 -0.0734 0.9941
vn 0.0861 -0.0679 0.9940
vn 0.0947 -0.0581 0.9938
vn 0.0991 -0.0708 0.9926
vn 0.0886 -0.1330 0.9871
vn -0.2838 -0.0762 0.9558
vn -0.2518 -0.0737 0.9650
vn -0.1987 -0.1602 0.9669
vn -0.2440 -0.1437 0.9591
vn -0.3000 -0.1178 0.9466
vn -0.2980 -0.1541 0.9420
vn -0.2775 -0.0931 0.9562
vn -0.2288 -0.1455 0.9625
vn -0.3223 -0.1186 0.9392
vn 0.2826 -0.0760 0.9562
vn 0.2281 -0.1457 0.9627
vn 0.1995 -0.1604 0.9667
vn 0.2435 -0.1423 0.9594
vn 0.2525 -0.0701 0.9651
vn 0.2975 -0.1573 0.9417
vn 0.2990 -0.1192 0.9468
vn 0.2806 -0.0938 0.9552
vn 0.3236 -0.1178 0.9388
vn -0.8918 0.4420 0.0971
vn -0.4332 0.1803 0.8831
vn -0.7100 0.5587 0.4287
vn -0.5274 0.4305 0.7324
vn -0.5649 0.2856 0.7741
vn -0.7135 0.1478 0.6849
vn 0.7087 0.5602 0.4289
vn 0.4321 0.1810 0.8835
vn 0.8910 0.4435 0.0973
vn 0.5651 0.2877 0.7733
vn 0.5265 0.4316 0.7324
vn 0.7133 0.1491 0.6848
vn 0.1698 0.5530 0.8157
vn 0.0001 0.1958 0.9806
vn 0.3251 0.1152 0.9386
vn 0.4029 0.8581 0.3183
vn 0.5574 0.3133 0.7689
vn 0.2353 -0.0971 0.9671
vn -0.3269 0.1148 0.9381
vn -0.1713 0.5522 0.8159
vn -0.2350 -0.0979 0.9671
vn -0.5582 0.3122 0.7688
vn -0.3068 -0.0280 0.9514
vn -0.3589 -0.2230 0.9063
vn -0.3660 -0.4096 0.8356
vn -0.3357 0.1710 0.9263
vn -0.6903 0.4425 0.5725
vn -0.4956 0.6639 0.5600
vn -0.1906 0.8956 -0.4019
vn -0.9955 -0.0788 0.0522
vn -0.9133 0.3187 0.2537
vn -0.8724 0.4390 -0.2150
vn -0.4061 0.8567 0.3179
vn -0.8057 -0.5906 0.0463
vn -0.3556 0.3418 0.8699
vn 0.9129 0.3201 0.2533
vn 0.9958 -0.0745 0.0524
vn 0.1886 0.8961 -0.4017
vn 0.8079 -0.5875 0.0459
vn 0.8713 0.4413 -0.2148
vn 0.3543 0.3433 0.8698
vn 0.6900 0.4442 0.5715
vn 0.3083 -0.0270 0.9509
vn 0.3355 0.1709 0.9264
vn 0.3670 -0.4092 0.8354
vn 0.3601 -0.2225 0.9060
vn 0.4930 0.6658 0.5600
vn -0.0007 0.3926 0.9197
vn -0.3971 0.2189 0.8913
vn -0.6359 0.5496 0.5418
vn 0.3971 0.2199 0.8910
vn 0.6344 0.5519 0.5413
vn -0.4529 -0.0589 0.8896
vn -0.4062 -0.2243 0.8858
vn 0.4540 -0.0576 0.8891
vn 0.4069 -0.2230 0.8859
vn -0.4189 0.4550 -0.7858
vn -0.3999 -0.0666 -0.9142
vn -0.9118 0.0241 -0.4100
vn 0.9116 0.0256 -0.4104
vn 0.3998 -0.0658 -0.9142
vn 0.4177 0.4564 -0.7856
vn -0.6319 -0.6118 0.4759
vn -0.6848 0.3165 0.6564
vn 0.6844 0.3182 0.6561
vn 0.6329 -0.6114 0.4750
vn -0.5332 0.5835 0.6125
vn 0.5323 0.5846 0.6123
vn 0.2327 -0.5629 0.7931
vn 0.4287 -0.4133 0.8034
vn -0.4283 -0.4145 0.8030
vn -0.5303 0.5367 0.6563
vn -0.8864 0.0143 0.4627
vn -0.2317 -0.5626 0.7936
vn 0.8871 0.0196 0.4611
vn 0.5283 0.5396 0.6556
vn -0.7505 0.6141 0.2442
vn 0.7476 0.6183 0.2425
vn -0.2905 -0.1150 0.9499
vn -0.2975 -0.0371 0.9540
vn 0.4933 0.8398 0.2269
vn -0.4957 0.8384 0.2268
vn 0.2979 -0.0366 0.9539
vn 0.2917 -0.1140 0.9497
vn -0.7053 -0.5421 0.4568
vn -0.7652 -0.1440 0.6274
vn 0.7656 -0.1426 0.6274
vn 0.7066 -0.5405 0.4567
vn 0.3430 -0.6685 0.6599
vn -0.3429 -0.6694 0.6591
vn -0.6115 -0.5765 -0.5419
vn -0.6057 -0.7955 0.0137
vn -0.7280 -0.6639 -0.1708
vn -0.9002 -0.3929 0.1876
vn -0.5504 -0.3805 -0.7431
vn 0.0215 -0.4321 -0.9016
vn 0.0183 -0.9531 -0.3021
vn 0.7200 -0.6546 -0.2305
vn 0.9121 -0.3141 0.2635
vn 0.5458 -0.8286 0.1248
vn 0.5999 -0.7981 -0.0552
vn 0.5959 -0.5708 -0.5649
vn 0.5074 -0.4872 -0.7108
vn -0.0001 -0.9734 0.2293
vn 0.4099 0.5083 0.7574
vn 0.4039 -0.6675 0.6255
vn 0.6698 0.2292 0.7062
vn -0.4058 -0.6676 0.6242
vn -0.5747 -0.8151 0.0726
vn -0.4127 0.5080 0.7561
vn -0.6697 0.2234 0.7082
usemtl Material_6B58079_c.png
s 1
f 57/1/1 58/2/2 59/3/3
f 57/1/1 60/4/4 58/2/2
f 57/1/1 61/5/5 62/6/6
f 57/1/1 59/3/3 61/5/5
f 57/1/1 63/7/7 64/8/8
f 57/1/1 62/6/6 63/7/7
f 57/1/1 65/9/9 66/10/10
f 57/1/1 64/8/8 65/9/9
f 67/11/11 68/12/12 69/13/13
f 67/11/11 70/14/14 68/12/12
f 67/11/11 71/15/15 72/16/16
f 67/11/11 69/13/13 71/15/15
f 67/11/11 73/17/17 74/18/18
f 67/11/11 72/16/16 73/17/17
f 67/11/11 75/19/19 76/20/20
f 67/11/11 74/18/18 75/19/19
usemtl Material_379B9AE2_c.png
f 93/21/21 85/22/22 82/23/23
f 85/22/22 93/21/21 87/24/24
f 90/25/25 89/26/26 93/21/21
f 93/21/21 79/27/27 90/25/25
f 82/23/23 78/28/28 93/21/21
f 77/29/29 79/27/27 93/21/21
f 94/30/30 84/31/31 83/32/32
f 93/21/21 78/28/28 77/29/29
f 80/33/33 94/30/30 81/34/34
f 83/32/32 81/34/34 94/30/30
f 94/30/30 92/35/35 91/36/36
f 94/30/30 86/37/37 88/38/38
f 91/36/36 86/37/37 94/30/30
f 88/38/38 84/31/31 94/30/30
usemtl Material.001
f 1/39/39 2/40/40 3/41/41
f 4/42/42 3/41/41 5/43/43
f 3/41/41 4/42/42 6/44/44
f 6/44/44 1/39/39 3/41/41
f 7/45/45 8/46/46 9/47/47
f 5/43/43 3/41/41 2/40/40
f 10/48/48 7/45/45 11/49/49
f 7/45/45 9/47/47 12/50/50
f 8/46/46 7/45/45 10/48/48
f 12/50/50 11/49/49 7/45/45
f 13/51/51 14/52/52 15/53/53
f 16/54/54 11/55/49 12/56/50
f 14/52/52 17/57/55 18/58/56
f 19/59/57 14/52/52 20/60/58
f 14/52/52 19/59/57 21/61/59
f 21/61/59 22/62/60 14/52/52
f 23/63/61 24/64/62 25/65/63
f 18/58/56 15/53/53 14/52/52
f 26/66/64 27/67/65 28/68/66
f 25/65/63 27/67/65 23/63/61
f 26/66/64 23/63/61 27/67/65
f 29/69/67 30/70/68 31/71/69
f 32/72/70 1/73/39 29/69/67
f 31/71/69 33/74/71 29/69/67
f 34/75/72 30/70/68 29/69/67
f 20/60/58 4/76/42 19/59/57
f 35/77/73 19/59/57 4/76/42
f 36/78/74 37/79/75 38/80/76
f 4/76/42 5/81/43 35/77/73
f 38/80/76 37/79/75 39/82/77
f 38/80/76 9/83/47 40/84/78
f 15/53/53 11/85/49 13/51/51
f 38/80/76 16/86/54 36/78/74
f 41/87/79 10/48/48 11/49/49
f 11/49/49 15/88/53 41/87/79
f 42/89/80 43/90/81 44/91/82
f 45/92/83 46/93/84 43/90/81
f 47/94/85 42/89/80 44/91/82
f 43/90/81 42/89/80 45/92/83
f 14/95/52 48/96/86 17/97/55
f 2/40/40 25/98/63 24/99/62
f 49/100/87 26/66/64 28/68/66
f 22/101/60 48/96/86 14/95/52
f 50/102/88 22/101/60 49/100/87
f 28/68/66 50/102/88 49/100/87
f 47/94/85 44/91/82 51/103/89
f 46/104/84 45/105/83 8/46/46
f 51/103/89 52/106/90 47/94/85
f 51/103/89 17/107/55 52/106/90
f 2/108/40 53/109/91 5/110/43
f 2/108/40 54/111/92 53/109/91
f 55/112/93 56/113/94 8/114/46
f 24/115/62 54/111/92 2/108/40
f 8/114/46 56/113/94 46/116/84
f 8/114/46 10/117/48 55/112/93
f 33/118/71 4/119/42 29/120/67
f 6/121/44 4/122/42 33/123/71
f 38/124/76 11/125/49 16/126/54
f 39/82/77 9/83/47 38/80/76
f 29/69/67 1/73/39 34/75/72
usemtl Material_13E93D10_c.png
f 134/127/95 135/128/96 136/129/97
f 137/130/98 138/131/99 139/132/100
f 136/129/97 32/133/70 134/127/95
f 136/129/97 140/134/101 141/135/102
f 141/135/102 1/136/39 136/129/97
f 136/129/97 1/136/39 32/133/70
f 29/137/67 134/127/95 32/133/70
f 134/127/95 138/138/99 135/128/96
f 134/127/95 139/139/100 138/138/99
f 139/139/100 29/137/67 38/140/76
f 139/139/100 134/127/95 29/137/67
f 137/141/98 9/142/47 142/143/103
f 143/144/104 45/145/83 137/141/98
f 142/143/103 143/144/104 137/141/98
f 139/139/100 40/146/78 137/141/98
f 25/147/63 2/148/40 141/135/102
f 136/129/97 25/147/63 140/134/101
f 40/146/78 139/139/100 38/140/76
f 141/135/102 140/134/101 25/147/63
f 45/145/83 143/144/104 142/143/103
f 40/146/78 9/142/47 137/141/98
f 142/143/103 8/149/46 45/145/83
f 144/150/105 38/151/76 29/152/67
f 144/150/105 145/153/106 38/151/76
f 141/135/102 2/148/40 1/136/39
f 29/152/67 4/154/42 144/150/105
f 38/151/76 145/153/106 11/155/49
f 4/154/42 145/153/106 144/150/105
f 4/154/42 11/155/49 145/153/106
f 9/142/47 8/149/46 142/143/103
usemtl Material_6DAD4054_c.png
f 112/156/107 146/157/108 147/158/109
f 148/159/110 147/158/109 146/157/108
f 106/160/111 105/161/112 147/158/109
f 147/158/109 105/161/112 112/156/107
f 146/157/108 112/156/107 109/162/113
f 147/158/109 148/159/110 106/160/111
f 146/157/108 149/163/114 148/159/110
f 109/162/113 149/163/114 146/157/108
f 106/160/111 148/159/110 110/164/115
f 108/165/116 149/163/114 109/162/113
f 89/166/26 22/101/60 98/167/117
f 98/167/117 93/168/21 89/166/26
f 98/167/117 97/169/118 87/170/24
f 87/170/24 93/168/21 98/167/117
f 107/171/119 149/163/114 108/165/116
f 149/163/114 107/171/119 111/172/120
f 110/164/115 148/159/110 111/172/120
f 111/172/120 148/159/110 149/163/114
f 80/173/33 55/174/93 96/175/121
f 95/176/122 94/177/30 80/173/33
f 92/178/35 94/177/30 95/176/122
f 80/173/33 96/175/121 95/176/122
f 97/169/118 53/179/91 87/170/24
f 95/176/122 17/180/55 92/178/35
usemtl Material_5C3370CA_c.png
f 95/181/122 96/182/121 41/183/79
f 41/183/79 15/184/53 95/181/122
f 95/181/122 15/184/53 18/185/56
f 96/182/121 10/186/48 41/183/79
f 35/187/73 5/188/43 97/189/118
f 18/185/56 17/107/55 95/181/122
f 35/187/73 97/189/118 98/190/117
f 98/190/117 19/191/57 35/187/73
f 99/192/123 100/193/124 101/194/125
f 5/188/43 53/195/91 97/189/118
f 102/196/126 103/197/127 104/198/128
f 101/194/125 102/196/126 99/192/123
f 105/199/112 104/198/128 103/197/127
f 104/198/128 99/192/123 102/196/126
f 12/200/50 9/201/47 39/202/77
f 104/198/128 105/199/112 106/203/111
f 12/200/50 37/204/75 36/205/74
f 39/202/77 37/204/75 12/200/50
f 6/206/44 33/207/71 31/208/69
f 36/205/74 16/209/54 12/200/50
f 6/206/44 30/210/68 34/211/72
f 31/208/69 30/210/68 6/206/44
f 20/212/58 14/213/52 13/214/51
f 34/211/72 1/215/39 6/206/44
f 20/212/58 11/55/49 4/122/42
f 20/212/58 13/214/51 11/55/49
f 107/216/119 108/217/116 52/218/90
f 96/182/121 55/219/93 10/186/48
f 108/217/116 109/220/113 42/221/80
f 47/222/85 52/218/90 108/217/116
f 102/223/126 42/221/80 109/220/113
f 108/217/116 42/221/80 47/222/85
f 28/224/66 27/225/65 110/226/115
f 110/226/115 50/227/88 28/224/66
f 99/228/123 106/229/111 27/225/65
f 27/225/65 106/229/111 110/226/115
f 98/190/117 22/101/60 21/230/59
f 50/227/88 110/226/115 111/231/120
f 27/232/65 25/233/63 100/234/124
f 21/230/59 19/191/57 98/190/117
f 99/228/123 104/235/128 106/229/111
f 100/234/124 99/236/123 27/232/65
f 107/216/119 48/237/86 111/231/120
f 22/62/60 50/227/88 111/231/120
f 17/57/55 48/237/86 107/216/119
f 111/231/120 48/237/86 22/62/60
f 101/238/125 45/239/83 42/240/80
f 107/216/119 52/218/90 17/57/55
f 109/220/113 103/241/127 102/223/126
f 42/240/80 102/242/126 101/238/125
f 109/243/113 112/244/107 103/197/127
f 103/197/127 112/244/107 105/199/112
f 113/245/129 114/246/130 115/247/131
f 114/246/130 116/248/132 115/247/131
f 113/245/129 117/249/133 118/250/134
f 115/247/131 117/249/133 113/245/129
f 114/246/130 113/245/129 119/251/135
f 118/250/134 119/251/135 113/245/129
f 120/252/136 121/253/137 122/254/138
f 120/252/136 122/254/138 123/255/139
f 120/252/136 123/255/139 124/256/140
f 124/256/140 125/257/141 120/252/136
f 123/255/139 122/254/138 126/258/142
f 123/255/139 126/258/142 119/251/135
f 118/250/134 124/256/140 119/251/135
f 119/251/135 124/256/140 123/255/139
f 127/259/143 128/260/144 122/254/138
f 118/250/134 125/257/141 124/256/140
f 122/254/138 121/253/137 129/261/145
f 126/258/142 122/254/138 128/260/144
f 130/262/146 131/263/147 126/258/142
f 129/261/145 127/259/143 122/254/138
f 126/258/142 131/263/147 114/246/130
f 128/260/144 130/262/146 126/258/142
f 114/246/130 131/263/147 116/248/132
f 119/251/135 126/258/142 114/246/130
f 131/263/147 130/262/146 132/264/148
f 133/265/149 116/248/132 131/263/147
f 131/263/147 132/264/148 133/265/149
f 132/264/148 129/261/145 133/265/149
f 132/264/148 127/259/143 129/261/145
f 121/253/137 133/265/149 129/261/145
f 121/253/137 116/248/132 133/265/149
f 130/262/146 127/259/143 132/264/148
f 130/262/146 128/260/144 127/259/143
usemtl Material_7FE6D19F_c.png
f 26/266/64 77/267/29 78/268/28
f 78/268/28 23/269/61 26/266/64
f 49/270/87 79/271/27 77/267/29
f 77/267/29 26/266/64 49/270/87
f 80/272/33 81/273/34 56/274/94
f 23/269/61 78/268/28 82/275/23
f 46/276/84 56/274/94 81/273/34
f 81/273/34 83/277/32 46/276/84
f 43/278/81 46/276/84 83/277/32
f 83/277/32 84/279/31 43/278/81
f 85/280/22 54/281/92 24/282/62
f 79/271/27 49/270/87 22/62/60
f 24/282/62 82/275/23 85/280/22
f 82/275/23 24/282/62 23/269/61
f 17/57/55 51/283/89 86/284/37
f 54/281/92 85/280/22 87/285/24
f 51/283/89 44/286/82 88/287/38
f 88/287/38 86/284/37 51/283/89
f 84/279/31 88/287/38 44/286/82
f 44/286/82 43/278/81 84/279/31
f 22/62/60 89/288/26 90/289/25
f 90/289/25 79/271/27 22/62/60
f 17/57/55 86/284/37 91/290/36
f 91/290/36 92/291/35 17/57/55
f 56/292/94 55/293/93 80/294/33
f 87/285/24 53/295/91 54/281/92
